<svg width="200" height="200" viewBox="0 0 200 200" fill="none" xmlns="http://www.w3.org/2000/svg">
    <g stroke="#bc7155" stroke-width="1" opacity="0.3">
        <path d="M12 12 L12 22 M12 12 L22 12"/>
        <path d="M188 12 L188 22 M188 12 L178 12"/>
        <path d="M12 188 L12 178 M12 188 L22 188"/>
        <path d="M188 188 L188 178 M188 188 L178 188"/>
    </g>

    <!-- Minimalist ID Card -->
    <rect x="50" y="70" width="100" height="60" rx="4" fill="#bc7155" fill-opacity="0.05" stroke="#bc7155" stroke-width="2"/>
    
    <!-- ID Card details -->
    <!-- Profile placeholder -->
    <circle cx="75" cy="100" r="12" fill="none" stroke="#bc7155" stroke-width="1.5"/>
    <circle cx="75" cy="100" r="4" fill="#bc7155" opacity="0.5"/>
    <!-- Text lines -->
    <line x1="100" y1="95" x2="135" y2="95" stroke="#bc7155" stroke-width="1.5"/>
    <line x1="100" y1="105" x2="125" y2="105" stroke="#bc7155" stroke-width="1" opacity="0.6"/>
    <!-- Barcode strip -->
    <rect x="50" y="115" width="100" height="6" fill="#bc7155" opacity="0.2"/>

    <!-- NFC Waves -->
    <path d="M 130 50 A 50 50 0 0 1 170 90" fill="none" stroke="#bc7155" stroke-width="1.5" stroke-linecap="round"/>
    <path d="M 140 40 A 65 65 0 0 1 190 90" fill="none" stroke="#bc7155" stroke-width="1.5" stroke-linecap="round" opacity="0.5"/>
    <path d="M 150 30 A 80 80 0 0 1 210 90" fill="none" stroke="#bc7155" stroke-width="1.5" stroke-linecap="round" opacity="0.2"/>
</svg>
