<svg width="200" height="200" viewBox="0 0 200 200" fill="none" xmlns="http://www.w3.org/2000/svg">
    <g stroke="#bc7155" stroke-width="1" opacity="0.3">
        <path d="M12 12 L12 22 M12 12 L22 12"/>
        <path d="M188 12 L188 22 M188 12 L178 12"/>
        <path d="M12 188 L12 178 M12 188 L22 188"/>
        <path d="M188 188 L188 178 M188 188 L178 188"/>
    </g>

    <!-- Concentric Waves from Top-Center -->
    <circle cx="100" cy="80" r="4" fill="#bc7155"/>
    <circle cx="100" cy="80" r="20" fill="none" stroke="#bc7155" stroke-width="1.5" opacity="0.8"/>
    <circle cx="100" cy="80" r="40" fill="none" stroke="#bc7155" stroke-width="1" opacity="0.4" stroke-dasharray="6 4"/>
    <circle cx="100" cy="80" r="60" fill="none" stroke="#bc7155" stroke-width="0.8" opacity="0.2" stroke-dasharray="4 6"/>
    
    <!-- Clean ECG Pulse Line Cutting Through -->
    <path d="M 30 140 L 75 140 L 85 120 L 100 160 L 115 110 L 125 140 L 170 140" fill="none" stroke="#bc7155" stroke-width="2" stroke-linecap="round" stroke-linejoin="round"/>
</svg>
