<svg width="200" height="200" viewBox="0 0 200 200" fill="none" xmlns="http://www.w3.org/2000/svg">
    <g stroke="#bc7155" stroke-width="1" opacity="0.3">
        <path d="M12 12 L12 22 M12 12 L22 12"/>
        <path d="M188 12 L188 22 M188 12 L178 12"/>
        <path d="M12 188 L12 178 M12 188 L22 188"/>
        <path d="M188 188 L188 178 M188 188 L178 188"/>
    </g>

    <!-- Minimalist Bar Chart (Comparison) -->
    <line x1="40" y1="140" x2="160" y2="140" stroke="#bc7155" stroke-width="1.5" opacity="0.3"/>
    
    <!-- High Bar -->
    <rect x="60" y="60" width="24" height="80" rx="2" fill="none" stroke="#bc7155" stroke-width="1.5" opacity="0.4"/>
    <!-- Low Bar -->
    <rect x="95" y="90" width="24" height="50" rx="2" fill="#bc7155" fill-opacity="0.1" stroke="#bc7155" stroke-width="2"/>
    
    <!-- Trend Line -->
    <path d="M 72 60 L 107 90" fill="none" stroke="#bc7155" stroke-width="1.5" stroke-linecap="round" stroke-dasharray="4 4" opacity="0.6"/>
    
    <!-- Minimalist Tag Floating -->
    <path d="M 120 50 L 160 50 L 160 80 L 140 100 L 120 80 Z" fill="none" stroke="#bc7155" stroke-width="1.5" stroke-linejoin="round"/>
    <circle cx="140" cy="65" r="3" fill="#bc7155" opacity="0.8"/>
    <!-- Tag String -->
    <path d="M 140 62 Q 135 40 107 90" fill="none" stroke="#bc7155" stroke-width="1" opacity="0.4"/>
</svg>
