<svg width="200" height="200" viewBox="0 0 200 200" fill="none" xmlns="http://www.w3.org/2000/svg">
    <g stroke="#bc7155" stroke-width="1" opacity="0.3">
        <path d="M12 12 L12 22 M12 12 L22 12"/>
        <path d="M188 12 L188 22 M188 12 L178 12"/>
        <path d="M12 188 L12 178 M12 188 L22 188"/>
        <path d="M188 188 L188 178 M188 188 L178 188"/>
    </g>

    <!-- Faint Map Grid -->
    <path d="M 40 40 L 160 40 M 40 80 L 160 80 M 40 120 L 160 120 M 40 160 L 160 160" stroke="#bc7155" stroke-width="0.5" opacity="0.1"/>
    <path d="M 40 40 L 40 160 M 80 40 L 80 160 M 120 40 L 120 160 M 160 40 L 160 160" stroke="#bc7155" stroke-width="0.5" opacity="0.1"/>

    <!-- Point A (Start) -->
    <circle cx="60" cy="140" r="6" fill="none" stroke="#bc7155" stroke-width="2"/>
    <circle cx="60" cy="140" r="2" fill="#bc7155"/>
    
    <!-- Route Path -->
    <path d="M 60 134 C 60 90 140 110 140 66" fill="none" stroke="#bc7155" stroke-width="2" stroke-dasharray="6 6"/>
    
    <!-- Point B (Map Pin) -->
    <path d="M 140 40 C 132 40 126 46 126 54 C 126 64 140 76 140 76 C 140 76 154 64 154 54 C 154 46 148 40 140 40 Z" fill="#bc7155" fill-opacity="0.1" stroke="#bc7155" stroke-width="2" stroke-linejoin="round"/>
    <circle cx="140" cy="54" r="4" fill="#bc7155"/>
</svg>
