<svg width="200" height="200" viewBox="0 0 200 200" fill="none" xmlns="http://www.w3.org/2000/svg">
    <g stroke="#bc7155" stroke-width="1" opacity="0.3">
        <path d="M12 12 L12 22 M12 12 L22 12"/>
        <path d="M188 12 L188 22 M188 12 L178 12"/>
        <path d="M12 188 L12 178 M12 188 L22 188"/>
        <path d="M188 188 L188 178 M188 188 L178 188"/>
    </g>

    <!-- Minimalist Shield -->
    <path d="M 60 55 L 140 55 C 140 100 115 130 100 145 C 85 130 60 100 60 55 Z" fill="none" stroke="#bc7155" stroke-width="2" stroke-linejoin="round"/>
    
    <!-- Inner Accent -->
    <path d="M 70 65 L 130 65 C 130 95 110 115 100 128 C 90 115 70 95 70 65 Z" fill="#bc7155" fill-opacity="0.05" stroke="#bc7155" stroke-width="1" opacity="0.5" stroke-linejoin="round"/>
    
    <!-- Search / Scanner Element -->
    <circle cx="100" cy="85" r="14" fill="none" stroke="#bc7155" stroke-width="1.5"/>
    <line x1="110" y1="95" x2="120" y2="105" stroke="#bc7155" stroke-width="1.5" stroke-linecap="round"/>
    
    <circle cx="100" cy="85" r="4" fill="#bc7155" opacity="0.8"/>
    <!-- Scan line -->
    <line x1="50" y1="85" x2="150" y2="85" stroke="#bc7155" stroke-width="0.8" opacity="0.3" stroke-dasharray="4 4"/>
</svg>
