<svg width="200" height="200" viewBox="0 0 200 200" fill="none" xmlns="http://www.w3.org/2000/svg">
    <!-- Corner marks -->
    <g stroke="#bc7155" stroke-width="1" opacity="0.3">
        <path d="M12 12 L12 22 M12 12 L22 12"/>
        <path d="M188 12 L188 22 M188 12 L178 12"/>
        <path d="M12 188 L12 178 M12 188 L22 188"/>
        <path d="M188 188 L188 178 M188 188 L178 188"/>
    </g>

    <!-- Abstract Flat Stack -->
    <!-- Top Layer -->
    <rect x="50" y="50" width="100" height="24" rx="2" fill="#bc7155" fill-opacity="0.1" stroke="#bc7155" stroke-width="2"/>
    <circle cx="65" cy="62" r="4" fill="#bc7155" opacity="0.8"/>
    <line x1="80" y1="62" x2="135" y2="62" stroke="#bc7155" stroke-width="1.5" opacity="0.5" stroke-dasharray="4 4"/>
    
    <!-- Middle Layer -->
    <rect x="50" y="88" width="100" height="24" rx="2" fill="#bc7155" fill-opacity="0.05" stroke="#bc7155" stroke-width="1.5" opacity="0.8"/>
    <circle cx="135" cy="100" r="4" fill="#bc7155" opacity="0.6"/>
    <line x1="65" y1="100" x2="120" y2="100" stroke="#bc7155" stroke-width="1.5" opacity="0.4" stroke-dasharray="4 4"/>
    
    <!-- Bottom Layer -->
    <rect x="50" y="126" width="100" height="24" rx="2" fill="none" stroke="#bc7155" stroke-width="1.5" opacity="0.5"/>
    <circle cx="100" cy="138" r="4" fill="#bc7155" opacity="0.4"/>
    
    <!-- Connecting Vertical Lines -->
    <line x1="65" y1="74" x2="65" y2="88" stroke="#bc7155" stroke-width="1.5" opacity="0.4" stroke-dasharray="2 2"/>
    <line x1="135" y1="112" x2="135" y2="126" stroke="#bc7155" stroke-width="1.5" opacity="0.3" stroke-dasharray="2 2"/>
</svg>
