<svg width="200" height="200" viewBox="0 0 200 200" fill="none" xmlns="http://www.w3.org/2000/svg">
    <!-- Corner marks -->
    <g stroke="#bc7155" stroke-width="1" opacity="0.3">
        <path d="M12 12 L12 22 M12 12 L22 12"/>
        <path d="M188 12 L188 22 M188 12 L178 12"/>
        <path d="M12 188 L12 178 M12 188 L22 188"/>
        <path d="M188 188 L188 178 M188 188 L178 188"/>
    </g>
    <!-- Minimalist UI / Code Frame -->
    <rect x="40" y="50" width="120" height="100" rx="4" fill="none" stroke="#bc7155" stroke-width="2"/>
    
    <!-- UI Header -->
    <line x1="40" y1="70" x2="160" y2="70" stroke="#bc7155" stroke-width="1.5" opacity="0.5"/>
    <!-- Window Controls -->
    <circle cx="50" cy="60" r="2.5" fill="#bc7155"/>
    <circle cx="60" cy="60" r="2.5" fill="#bc7155" opacity="0.5"/>
    <circle cx="70" cy="60" r="2.5" fill="#bc7155" opacity="0.2"/>
    
    <!-- Code block lines -->
    <!-- Sidebar / Line numbers area -->
    <line x1="60" y1="70" x2="60" y2="150" stroke="#bc7155" stroke-width="1" opacity="0.2"/>
    
    <!-- Lines -->
    <rect x="70" y="85" width="40" height="4" rx="2" fill="#bc7155" opacity="0.8"/>
    <rect x="70" y="97" width="20" height="4" rx="2" fill="#bc7155" opacity="0.4"/>
    <rect x="95" y="97" width="45" height="4" rx="2" fill="#bc7155" opacity="0.6"/>
    
    <rect x="70" y="109" width="30" height="4" rx="2" fill="#bc7155" opacity="0.4"/>
    <rect x="105" y="109" width="35" height="4" rx="2" fill="#bc7155" opacity="0.8"/>
    
    <rect x="70" y="121" width="15" height="4" rx="2" fill="#bc7155" opacity="0.3"/>
    
    <rect x="70" y="133" width="60" height="4" rx="2" fill="#bc7155" opacity="0.5"/>
</svg>
